<svg width="163" height="163" viewBox="0 0 163 163" fill="none" xmlns="http://www.w3.org/2000/svg">
<line y1="19.8769" x2="162.4" y2="19.8769" stroke="#0068E0" stroke-width="0.845833"/>
<line y1="40.1774" x2="162.4" y2="40.1774" stroke="#0068E0" stroke-width="0.845833"/>
<line y1="60.4772" x2="162.4" y2="60.4772" stroke="#0068E0" stroke-width="0.845833"/>
<line y1="80.777" x2="162.4" y2="80.777" stroke="#0068E0" stroke-width="0.845833"/>
<line y1="101.077" x2="162.4" y2="101.077" stroke="#0068E0" stroke-width="0.845833"/>
<line y1="121.377" x2="162.4" y2="121.377" stroke="#0068E0" stroke-width="0.845833"/>
<line y1="141.677" x2="162.4" y2="141.677" stroke="#0068E0" stroke-width="0.845833"/>
<line y1="162.277" x2="162.4" y2="162.277" stroke="#0068E0" stroke-width="0.845833"/>
<line x1="19.8769" y1="162.4" x2="19.8769" y2="0.000396747" stroke="#0068E0" stroke-width="0.845833"/>
<line x1="40.1769" y1="162.4" x2="40.1769" y2="0.000396747" stroke="#0068E0" stroke-width="0.845833"/>
<line x1="60.477" y1="162.4" x2="60.477" y2="-9.15342e-05" stroke="#0068E0" stroke-width="0.845833"/>
<line x1="80.7763" y1="162.4" x2="80.7763" y2="-9.15342e-05" stroke="#0068E0" stroke-width="0.845833"/>
<line x1="101.076" y1="162.4" x2="101.076" y2="-9.15342e-05" stroke="#0068E0" stroke-width="0.845833"/>
<line x1="121.376" y1="162.4" x2="121.376" y2="-9.15342e-05" stroke="#0068E0" stroke-width="0.845833"/>
<line x1="141.677" y1="162.7" x2="141.677" y2="0.300201" stroke="#0068E0" stroke-width="0.845833"/>
<line x1="162.276" y1="162.4" x2="162.276" y2="-9.15342e-05" stroke="#0068E0" stroke-width="0.845833"/>
</svg>
