<svg width="387" height="98" viewBox="0 0 387 98" fill="none" xmlns="http://www.w3.org/2000/svg">
<circle cx="49" cy="49" r="44" fill="#0068E1"/>
<rect x="5" y="5" width="88" height="88" rx="44" fill="url(#paint0_linear_1380_76)" fill-opacity="0.8"/>
<path d="M44.8975 70.158H39.2055C34.973 70.158 32.8567 70.158 31.3017 69.3099C29.9356 68.5649 28.8592 67.3828 28.2449 65.9532C27.5457 64.3257 27.7432 62.2187 28.1383 58.0047L29.5277 43.1836C29.8613 39.6251 30.0282 37.8459 30.8284 36.5007C31.5332 35.316 32.5745 34.3677 33.8199 33.7766C35.2339 33.1054 37.0209 33.1054 40.595 33.1054L57.4028 33.1054C60.9769 33.1054 62.7639 33.1054 64.1779 33.7766C65.4232 34.3677 66.4646 35.316 67.1694 36.5007C67.9696 37.8459 68.1364 39.6251 68.47 43.1836L68.8278 47.0001M58.262 40.0528V33.1054C58.262 27.9895 54.1148 23.8422 48.9989 23.8422C43.883 23.8422 39.7357 27.9895 39.7357 33.1054V40.0527" stroke="white" stroke-width="4.125" stroke-linecap="round" stroke-linejoin="round"/>
<path d="M69.2288 59.8527C70.1941 59.333 70.6767 59.0731 70.8027 58.7563C70.912 58.4813 70.8849 58.1708 70.7295 57.9189C70.5506 57.6288 70.0302 57.4565 68.9895 57.1119L53.5873 52.0122C52.6759 51.7104 52.2202 51.5595 51.9167 51.668C51.6526 51.7625 51.4448 51.9703 51.3503 52.2344C51.2419 52.5379 51.3927 52.9936 51.6945 53.905L56.7942 69.3072C57.1388 70.348 57.3111 70.8683 57.6012 71.0473C57.8531 71.2026 58.1636 71.2298 58.4386 71.1204C58.7553 70.9945 59.0152 70.5118 59.535 69.5465L62.7148 63.6412C62.794 63.4941 62.8336 63.4206 62.8845 63.3562C62.9297 63.299 62.9814 63.2474 63.0385 63.2022C63.1029 63.1513 63.1764 63.1117 63.3235 63.0325L69.2288 59.8527Z" stroke="white" stroke-width="4.125" stroke-linecap="round" stroke-linejoin="round"/>
<path d="M65.3485 82.5535C65.3523 82.9145 65.3747 83.2756 65.4233 83.6321C65.427 83.6458 65.427 83.6595 65.4308 83.6732C65.4682 83.92 65.5729 84.0982 65.7523 84.2216C65.8719 84.3039 65.9953 84.377 66.1336 84.4044C66.343 84.4501 66.5561 84.5004 66.7654 84.5507C66.8253 84.5644 66.8664 84.6101 66.8739 84.6741C66.8813 84.7335 66.8514 84.7929 66.7991 84.8249C66.7692 84.8386 66.7355 84.8477 66.7056 84.8615C66.5299 84.9163 66.3542 84.9803 66.1897 85.0808C65.9243 85.2408 65.7299 85.4876 65.6177 85.8212C65.4869 86.2051 65.3971 86.6027 65.3523 87.014C65.3411 87.1329 65.3261 87.2517 65.3149 87.3705C65.3074 87.4482 65.2738 87.4939 65.2214 87.4985C65.1691 87.5076 65.128 87.4756 65.1018 87.4071C65.0906 87.3751 65.0831 87.3431 65.0756 87.3111C64.9934 86.9775 64.8775 86.6621 64.7317 86.3605C64.698 86.2965 64.6644 86.2279 64.6233 86.1731C64.4363 85.9309 64.2345 85.7069 64.0027 85.5287C63.812 85.3825 63.6026 85.3002 63.3858 85.2408C63.2101 85.1951 63.0344 85.1539 62.8587 85.1128C62.7914 85.0991 62.754 85.0534 62.7503 84.9894C62.7465 84.9209 62.7839 84.866 62.8512 84.8477C62.8699 84.8432 62.8923 84.8386 62.9148 84.8386C63.0194 84.8523 63.1166 84.8158 63.2138 84.7975C63.412 84.7563 63.6026 84.6832 63.7933 84.6101C63.8905 84.5735 63.984 84.5278 64.0812 84.4867C64.3952 84.3496 64.5859 84.0708 64.7055 83.7052C64.7354 83.6092 64.7579 83.5087 64.7915 83.4173C64.8401 83.2802 64.8924 83.143 64.941 83.0059C64.9709 82.9282 65.0046 82.846 65.0233 82.7637C65.0681 82.5672 65.1093 82.3707 65.1541 82.1696C65.1616 82.1376 65.1728 82.1056 65.184 82.069C65.199 82.0233 65.2252 81.9959 65.2663 82.0005C65.3112 82.0051 65.3373 82.0416 65.3448 82.0919C65.3485 82.133 65.3485 82.1696 65.3485 82.2107C65.3485 82.325 65.3485 82.4392 65.3485 82.5535Z" fill="white"/>
<path d="M30.1074 23.1517C30.1099 23.3323 30.1248 23.5128 30.1572 23.691C30.1597 23.6979 30.1597 23.7047 30.1622 23.7116C30.1871 23.835 30.2569 23.9241 30.3765 23.9858C30.4563 24.0269 30.5385 24.0635 30.6308 24.0772C30.7703 24.1001 30.9124 24.1252 31.052 24.1503C31.0918 24.1572 31.1193 24.18 31.1242 24.212C31.1292 24.2417 31.1093 24.2714 31.0744 24.2874C31.0545 24.2943 31.032 24.2989 31.0121 24.3057C30.8949 24.3331 30.7778 24.3651 30.6681 24.4154C30.4912 24.4954 30.3616 24.6188 30.2868 24.7856C30.1996 24.9775 30.1398 25.1764 30.1099 25.382C30.1024 25.4414 30.0924 25.5008 30.0849 25.5603C30.0799 25.5991 30.0575 25.622 30.0226 25.6242C29.9877 25.6288 29.9603 25.6128 29.9429 25.5785C29.9354 25.5625 29.9304 25.5465 29.9254 25.5305C29.8706 25.3637 29.7933 25.2061 29.6961 25.0552C29.6737 25.0233 29.6513 24.989 29.6238 24.9616C29.4992 24.8404 29.3646 24.7285 29.2101 24.6394C29.083 24.5662 28.9434 24.5251 28.7989 24.4954C28.6817 24.4725 28.5646 24.452 28.4474 24.4314C28.4026 24.4246 28.3777 24.4017 28.3752 24.3697C28.3727 24.3354 28.3976 24.308 28.4425 24.2989C28.4549 24.2966 28.4699 24.2943 28.4848 24.2943C28.5546 24.3012 28.6194 24.2829 28.6842 24.2737C28.8163 24.2532 28.9434 24.2166 29.0705 24.18C29.1353 24.1618 29.1976 24.1389 29.2625 24.1183C29.4718 24.0498 29.5989 23.9104 29.6787 23.7276C29.6986 23.6796 29.7136 23.6293 29.736 23.5836C29.7684 23.5151 29.8033 23.4465 29.8357 23.378C29.8556 23.3391 29.8781 23.298 29.8905 23.2569C29.9204 23.1586 29.9478 23.0603 29.9778 22.9598C29.9827 22.9438 29.9902 22.9278 29.9977 22.9095C30.0077 22.8867 30.0251 22.873 30.0525 22.8752C30.0824 22.8775 30.0999 22.8958 30.1049 22.9209C30.1074 22.9415 30.1074 22.9598 30.1074 22.9804C30.1074 23.0375 30.1074 23.0946 30.1074 23.1517Z" fill="white"/>
<path d="M71.3574 30.0267C71.3599 30.2073 71.3748 30.3878 71.4072 30.566C71.4097 30.5729 71.4097 30.5797 71.4122 30.5866C71.4371 30.71 71.5069 30.7991 71.6265 30.8608C71.7063 30.9019 71.7885 30.9385 71.8808 30.9522C72.0203 30.9751 72.1624 31.0002 72.302 31.0253C72.3418 31.0322 72.3693 31.055 72.3742 31.087C72.3792 31.1167 72.3593 31.1464 72.3244 31.1624C72.3045 31.1693 72.282 31.1739 72.2621 31.1807C72.1449 31.2081 72.0278 31.2401 71.9181 31.2904C71.7412 31.3704 71.6116 31.4938 71.5368 31.6606C71.4496 31.8525 71.3898 32.0514 71.3599 32.257C71.3524 32.3164 71.3424 32.3758 71.3349 32.4353C71.3299 32.4741 71.3075 32.497 71.2726 32.4992C71.2377 32.5038 71.2103 32.4878 71.1929 32.4535C71.1854 32.4375 71.1804 32.4215 71.1754 32.4055C71.1206 32.2387 71.0433 32.0811 70.9461 31.9302C70.9237 31.8983 70.9013 31.864 70.8738 31.8366C70.7492 31.7154 70.6146 31.6035 70.4601 31.5144C70.333 31.4412 70.1934 31.4001 70.0489 31.3704C69.9317 31.3475 69.8146 31.327 69.6974 31.3064C69.6526 31.2996 69.6277 31.2767 69.6252 31.2447C69.6227 31.2104 69.6476 31.183 69.6925 31.1739C69.7049 31.1716 69.7199 31.1693 69.7348 31.1693C69.8046 31.1762 69.8694 31.1579 69.9342 31.1487C70.0663 31.1282 70.1934 31.0916 70.3205 31.055C70.3853 31.0368 70.4476 31.0139 70.5125 30.9933C70.7218 30.9248 70.8489 30.7854 70.9287 30.6026C70.9486 30.5546 70.9636 30.5043 70.986 30.4586C71.0184 30.3901 71.0533 30.3215 71.0857 30.253C71.1056 30.2141 71.1281 30.173 71.1405 30.1319C71.1704 30.0336 71.1978 29.9353 71.2278 29.8348C71.2327 29.8188 71.2402 29.8028 71.2477 29.7845C71.2577 29.7617 71.2751 29.748 71.3025 29.7502C71.3324 29.7525 71.3499 29.7708 71.3549 29.7959C71.3574 29.8165 71.3574 29.8348 71.3574 29.8554C71.3574 29.9125 71.3574 29.9696 71.3574 30.0267Z" fill="white"/>
<path d="M113 72.7354V25.2646H143.969V31.9551H120.535V46.2282H141.415V52.9187H120.535V72.7354H113Z" fill="white"/>
<path d="M147.592 72.7354V24.5H154.808V72.7354H147.592Z" fill="white"/>
<path d="M177.467 73.5C174.019 73.5 170.954 72.7141 168.272 71.1424C165.633 69.5282 163.569 67.3617 162.079 64.643C160.589 61.8819 159.844 58.8021 159.844 55.4038C159.844 51.9205 160.589 48.8407 162.079 46.1645C163.611 43.4883 165.654 41.3856 168.209 39.8563C170.763 38.2846 173.657 37.4987 176.893 37.4987C179.49 37.4987 181.81 37.9447 183.853 38.8368C185.896 39.7289 187.62 40.9608 189.025 42.5325C190.43 44.0618 191.494 45.8247 192.218 47.8212C192.984 49.8177 193.367 51.9417 193.367 54.1931C193.367 54.7453 193.346 55.3188 193.303 55.9135C193.261 56.5082 193.176 57.0605 193.048 57.5702H165.527V51.8355H188.961L185.513 54.448C185.939 52.3665 185.79 50.5186 185.066 48.9044C184.385 47.2477 183.321 45.9521 181.873 45.0176C180.469 44.0405 178.808 43.552 176.893 43.552C174.977 43.552 173.274 44.0405 171.784 45.0176C170.294 45.9521 169.145 47.3114 168.336 49.0956C167.527 50.8372 167.208 52.9612 167.378 55.4675C167.166 57.8039 167.485 59.8429 168.336 61.5845C169.23 63.3262 170.465 64.6855 172.04 65.6625C173.657 66.6396 175.488 67.1281 177.531 67.1281C179.617 67.1281 181.384 66.6608 182.831 65.7263C184.321 64.7917 185.492 63.5811 186.343 62.0943L192.218 64.9616C191.537 66.5759 190.472 68.0414 189.025 69.3583C187.62 70.6326 185.918 71.6521 183.917 72.4168C181.959 73.1389 179.809 73.5 177.467 73.5Z" fill="white"/>
<path d="M214.633 73.5C211.185 73.5 208.12 72.7141 205.438 71.1424C202.798 69.5282 200.734 67.3617 199.244 64.643C197.754 61.8819 197.009 58.8021 197.009 55.4038C197.009 51.9205 197.754 48.8407 199.244 46.1645C200.776 43.4883 202.82 41.3856 205.374 39.8563C207.928 38.2846 210.823 37.4987 214.058 37.4987C216.655 37.4987 218.975 37.9447 221.018 38.8368C223.061 39.7289 224.786 40.9608 226.19 42.5325C227.595 44.0618 228.659 45.8247 229.383 47.8212C230.149 49.8177 230.532 51.9417 230.532 54.1931C230.532 54.7453 230.511 55.3188 230.469 55.9135C230.426 56.5082 230.341 57.0605 230.213 57.5702H202.692V51.8355H226.126L222.678 54.448C223.104 52.3665 222.955 50.5186 222.231 48.9044C221.55 47.2477 220.486 45.9521 219.039 45.0176C217.634 44.0405 215.974 43.552 214.058 43.552C212.142 43.552 210.44 44.0405 208.95 45.0176C207.46 45.9521 206.31 47.3114 205.502 49.0956C204.693 50.8372 204.373 52.9612 204.544 55.4675C204.331 57.8039 204.65 59.8429 205.502 61.5845C206.395 63.3262 207.63 64.6855 209.205 65.6625C210.823 66.6396 212.653 67.1281 214.697 67.1281C216.782 67.1281 218.549 66.6608 219.996 65.7263C221.486 64.7917 222.657 63.5811 223.508 62.0943L229.383 64.9616C228.702 66.5759 227.638 68.0414 226.19 69.3583C224.786 70.6326 223.083 71.6521 221.082 72.4168C219.124 73.1389 216.974 73.5 214.633 73.5Z" fill="white"/>
<path d="M250.521 73.1177C246.902 73.1177 244.093 72.0982 242.092 70.0592C240.091 68.0202 239.091 65.1528 239.091 61.4571V44.7627H233.025V38.2633H233.983C235.6 38.2633 236.856 37.7961 237.75 36.8615C238.644 35.927 239.091 34.6526 239.091 33.0384V30.3622H246.306V38.2633H254.161V44.7627H246.306V61.1385C246.306 62.3279 246.498 63.3474 246.881 64.197C247.264 65.0041 247.882 65.6413 248.733 66.1086C249.584 66.5334 250.691 66.7458 252.053 66.7458C252.394 66.7458 252.777 66.7245 253.203 66.6821C253.628 66.6396 254.033 66.5971 254.416 66.5546V72.7354C253.82 72.8203 253.16 72.9053 252.436 72.9902C251.713 73.0752 251.074 73.1177 250.521 73.1177Z" fill="white"/>
<path d="M282.322 73.5C278.959 73.5 275.83 72.884 272.935 71.6521C270.083 70.4202 267.593 68.7211 265.464 66.5546C263.378 64.3457 261.739 61.7544 260.547 58.7809C259.356 55.8073 258.76 52.5364 258.76 48.9681C258.76 45.4423 259.334 42.1927 260.484 39.2191C261.676 36.2031 263.336 33.6118 265.464 31.4454C267.593 29.2365 270.083 27.5373 272.935 26.3479C275.787 25.116 278.916 24.5 282.322 24.5C285.685 24.5 288.686 25.0735 291.325 26.2204C294.007 27.3674 296.263 28.8754 298.094 30.7445C299.924 32.5711 301.244 34.5676 302.053 36.7341L295.284 39.92C294.263 37.3713 292.624 35.311 290.367 33.7393C288.154 32.1251 285.472 31.3179 282.322 31.3179C279.172 31.3179 276.383 32.0613 273.957 33.5481C271.53 35.0349 269.636 37.0951 268.274 39.7289C266.954 42.3626 266.294 45.4423 266.294 48.9681C266.294 52.4939 266.954 55.5949 268.274 58.2711C269.636 60.9049 271.53 62.9651 273.957 64.4519C276.383 65.8962 279.172 66.6183 282.322 66.6183C285.472 66.6183 288.154 65.8325 290.367 64.2607C292.624 62.689 294.263 60.6287 295.284 58.08L302.053 61.2659C301.244 63.3899 299.924 65.3864 298.094 67.2555C296.263 69.1246 294.007 70.6326 291.325 71.7796C288.686 72.9265 285.685 73.5 282.322 73.5Z" fill="white"/>
<path d="M316.824 73.5C314.483 73.5 312.418 73.0964 310.63 72.2893C308.885 71.4397 307.523 70.2928 306.544 68.8485C305.564 67.3617 305.075 65.6201 305.075 63.6235C305.075 61.7544 305.479 60.0765 306.288 58.5897C307.14 57.1029 308.438 55.8498 310.183 54.8303C311.929 53.8108 314.121 53.0886 316.76 52.6638L328.765 50.6886V56.3596L318.165 58.2074C316.249 58.5472 314.845 59.1632 313.951 60.0553C313.057 60.9049 312.61 62.0093 312.61 63.3687C312.61 64.6855 313.099 65.7687 314.078 66.6183C315.1 67.4254 316.398 67.829 317.974 67.829C319.932 67.829 321.635 67.4042 323.082 66.5546C324.572 65.705 325.721 64.5793 326.53 63.1775C327.339 61.7332 327.743 60.1402 327.743 58.3986V49.5416C327.743 47.8424 327.105 46.4619 325.828 45.3999C324.593 44.2954 322.933 43.7432 320.847 43.7432C318.931 43.7432 317.25 44.2529 315.802 45.2724C314.398 46.2495 313.355 47.5238 312.674 49.0956L306.671 46.1008C307.31 44.4016 308.353 42.9148 309.8 41.6404C311.248 40.3236 312.929 39.3041 314.845 38.5819C316.803 37.8598 318.867 37.4987 321.039 37.4987C323.763 37.4987 326.168 38.0085 328.254 39.028C330.383 40.0475 332.021 41.4705 333.171 43.2971C334.363 45.0813 334.959 47.1628 334.959 49.5416V72.7354H328.063V66.4909L329.531 66.6821C328.722 68.0839 327.679 69.2945 326.402 70.314C325.168 71.3336 323.742 72.1194 322.124 72.6717C320.549 73.2239 318.782 73.5 316.824 73.5Z" fill="white"/>
<path d="M341.4 72.7354V38.2633H348.296V45.2087L347.658 44.1892C348.424 41.9378 349.659 40.3236 351.361 39.3466C353.064 38.327 355.107 37.8173 357.491 37.8173H359.599V44.3804H356.597C354.214 44.3804 352.277 45.1238 350.787 46.6105C349.339 48.0548 348.616 50.1363 348.616 52.855V72.7354H341.4Z" fill="white"/>
<path d="M378.105 73.1177C374.486 73.1177 371.677 72.0982 369.676 70.0592C367.675 68.0202 366.675 65.1528 366.675 61.4571V44.7627H360.609V38.2633H361.567C363.184 38.2633 364.44 37.7961 365.334 36.8615C366.228 35.927 366.675 34.6526 366.675 33.0384V30.3622H373.891V38.2633H381.745V44.7627H373.891V61.1385C373.891 62.3279 374.082 63.3474 374.465 64.197C374.848 65.0041 375.466 65.6413 376.317 66.1086C377.168 66.5334 378.275 66.7458 379.637 66.7458C379.978 66.7458 380.361 66.7245 380.787 66.6821C381.212 66.6396 381.617 66.5971 382 66.5546V72.7354C381.404 72.8203 380.744 72.9053 380.021 72.9902C379.297 73.0752 378.658 73.1177 378.105 73.1177Z" fill="white"/>
<defs>
<linearGradient id="paint0_linear_1380_76" x1="49" y1="5" x2="49" y2="93" gradientUnits="userSpaceOnUse">
<stop stop-color="white" stop-opacity="0.4"/>
<stop offset="1" stop-color="white" stop-opacity="0"/>
</linearGradient>
</defs>
</svg>
